# xmcd
#
# Track frame offsets:
#	150
#	11832
#	27313
#	37332
#	51827
#	63552
#	80380
#	95774
#	117981
#	129680
#	140024
#	152145
#	167076
#	182206
#
# Disc length: 2613 seconds
#
# Revision: 1
# Processed by: cddbd v1.5.2PL0 Copyright (c) Steve Scherf et al.
# Submitted via: audiograbber 1.83.01
#
DISCID=ce0a330e
DTITLE=Junior Barber and Beartracks - Together Til the End
DYEAR=2008
DGENRE=Bluegrass
TTITLE0=Old Man From the Mountain
TTITLE1=Someone I Used to Know
TTITLE2=Sad and Blue
TTITLE3=Far Side Banks of Jordan
TTITLE4=Deep Water
TTITLE5=I Never Go Around Mirrors
TTITLE6=Smiling Jack
TTITLE7=Traveling Soldier
TTITLE8=Poets and Fools
TTITLE9=When Jesus Calls Me Home
TTITLE10=Last Train Gone Down
TTITLE11=Coat of Many Colors
TTITLE12=If Things Were Different Now
TTITLE13=Together Til the End
EXTD=
EXTT0=
EXTT1=
EXTT2=
EXTT3=
EXTT4=
EXTT5=
EXTT6=
EXTT7=
EXTT8=
EXTT9=
EXTT10=
EXTT11=
EXTT12=
EXTT13=
PLAYORDER=
